<svg width="172" height="44" viewBox="0 0 172 44" fill="none" xmlns="http://www.w3.org/2000/svg">
<path d="M16.0792 5.5495L21.3466 20.388H10.7744L16.0792 5.5495ZM11.5057 1.72754L0 33.1896H6.19054L8.78224 25.8896H23.3364L25.9287 33.1896H32.335L20.8286 1.72754H11.5057Z" fill="#0a1530"/>
<path d="M39.9089 12.9688L39.9138 9.8916H34.1523V33.19H39.9138V20.0941C39.9138 16.7564 42.5392 15.1345 47.9396 15.1345H48.5526V9.8916C44.0502 9.8916 41.3525 11.0036 39.9089 12.9688Z" fill="#0a1530"/>
<path d="M60.8989 1.07422L55.138 2.88498V9.89201H50.4297V15.1343H55.138V24.5001C55.138 30.3473 58.065 33.1904 64.087 33.1904H67.1188V27.9469H64.087C61.7626 27.9469 60.8989 27.0709 60.8989 24.7152V15.1343H67.1188V9.89201H60.8989V1.07422Z" fill="#0a1530"/>
<rect x="69.9102" y="9.8916" width="5.76145" height="23.2983" fill="#0a1530"/>
<path d="M135.397 9.45996C132.324 9.45996 129.738 10.9121 128.105 13.4523V9.89212H122.344V33.1905H128.105V20.0946C128.105 16.996 130.393 14.8328 133.669 14.8328C136.57 14.8328 138.758 17.0947 138.758 20.0946V33.1905H144.519V19.4032C144.519 13.5486 140.768 9.45996 135.397 9.45996Z" fill="#0a1530"/>
<path d="M97.9421 8.69029V9.89174H97.9415H88.9312V8.47452C88.9312 6.11943 89.7949 5.24348 92.1188 5.24348H95.1506V0H92.1188C86.0968 0 83.1692 2.84241 83.1692 8.69029V9.89174H83.1686H78.4614V15.1346H83.1686V34.6067C83.1686 36.9624 82.3049 37.8384 79.981 37.8384H76.9492V43.0812H79.981C86.003 43.0812 88.9306 40.2388 88.9306 34.3915V33.1901H88.9312V15.1346H97.9415V34.6067C97.9415 36.9624 97.0778 37.8384 94.754 37.8384H91.7216V43.0812H94.754C100.776 43.0812 103.703 40.2388 103.703 34.3915V33.1901V15.1346H109.924V9.89174H103.703V8.47452C103.703 6.11943 104.567 5.24348 106.892 5.24348H109.924V0H106.892C100.869 0 97.9421 2.84241 97.9421 8.69029Z" fill="#0a1530"/>
<path d="M112.715 15.1345V33.19H118.476V9.8916H112.715V15.1345Z" fill="#0a1530"/>
<path d="M159.42 9.49707C163.233 9.49707 166.284 10.8757 168.572 13.6331C170.889 16.3611 171.74 19.6171 171.124 23.4011H153.612C154.023 24.7797 154.771 25.8944 155.856 26.7451C156.971 27.5664 158.291 27.9771 159.816 27.9771C162.397 27.9771 164.275 26.9211 165.448 24.8091L170.332 27.0091C169.305 28.8571 167.853 30.3384 165.976 31.4531C164.128 32.5384 162.016 33.0811 159.64 33.0811C156.179 33.0811 153.289 31.9517 150.972 29.6931C148.655 27.4344 147.496 24.6331 147.496 21.2891C147.496 17.9451 148.64 15.1437 150.928 12.8851C153.216 10.6264 156.047 9.49707 159.42 9.49707ZM159.42 14.6011C158.1 14.6011 156.912 14.9971 155.856 15.7891C154.829 16.5517 154.111 17.5784 153.7 18.8691H165.184C164.773 17.5784 164.055 16.5517 163.028 15.7891C162.001 14.9971 160.799 14.6011 159.42 14.6011Z" fill="#0a1530"/>
</svg>
