<svg xmlns="http://www.w3.org/2000/svg" width="115.455" height="57.306" viewBox="0 0 115.455 57.306">
  <g id="logo" transform="translate(1232.883 -41.774)">
    <g id="corporation" transform="translate(-1199.386 90.653)">
      <path id="Path_28" data-name="Path 28" d="M-1208.581,81.769a1.993,1.993,0,0,1-.808-.832,2.649,2.649,0,0,1-.284-1.26,2.691,2.691,0,0,1,.294-1.276,2.1,2.1,0,0,1,.827-.856,2.469,2.469,0,0,1,1.244-.3,2.83,2.83,0,0,1,.947.161,2.085,2.085,0,0,1,.745.438l-.3.684a2.073,2.073,0,0,0-1.318-.514,1.324,1.324,0,0,0-1.052.431,1.8,1.8,0,0,0-.38,1.222,1.76,1.76,0,0,0,.374,1.2,1.339,1.339,0,0,0,1.058.424,2.073,2.073,0,0,0,1.318-.514l.3.694a2.183,2.183,0,0,1-.769.433,2.929,2.929,0,0,1-.961.157,2.4,2.4,0,0,1-1.234-.291" transform="translate(1209.673 -75.284)"/>
      <path id="Path_29" data-name="Path 29" d="M-1203.161,80.885a1.9,1.9,0,0,0,.34-1.228,1.878,1.878,0,0,0-.346-1.22,1.192,1.192,0,0,0-.98-.425,1.188,1.188,0,0,0-.98.425,1.9,1.9,0,0,0-.345,1.22,1.908,1.908,0,0,0,.34,1.228,1.2,1.2,0,0,0,.984.418,1.2,1.2,0,0,0,.986-.418m-2.2.884a2.007,2.007,0,0,1-.809-.841,2.714,2.714,0,0,1-.283-1.27,2.747,2.747,0,0,1,.283-1.28,1.982,1.982,0,0,1,.809-.841,2.44,2.44,0,0,1,1.215-.3,2.436,2.436,0,0,1,1.217.3,2.011,2.011,0,0,1,.808.841,2.73,2.73,0,0,1,.283,1.28,2.7,2.7,0,0,1-.283,1.27,1.97,1.97,0,0,1-.808.841,2.444,2.444,0,0,1-1.217.3,2.411,2.411,0,0,1-1.215-.3" transform="translate(1211.099 -75.284)"/>
      <path id="Path_30" data-name="Path 30" d="M-1199.656,78.049l-.588.057a1.448,1.448,0,0,0-1,.42,1.32,1.32,0,0,0-.3.895V82h-.973V77.356h.944v.808a1.65,1.65,0,0,1,1.528-.9l.317-.019Z" transform="translate(1212.845 -75.283)"/>
      <path id="Path_31" data-name="Path 31" d="M-1196.8,80.879a1.857,1.857,0,0,0,.345-1.2,1.907,1.907,0,0,0-.351-1.226,1.181,1.181,0,0,0-.974-.438,1.164,1.164,0,0,0-.974.43,1.9,1.9,0,0,0-.341,1.218,1.908,1.908,0,0,0,.341,1.215,1.175,1.175,0,0,0,.974.43,1.194,1.194,0,0,0,.98-.424m.332-3.333a2.042,2.042,0,0,1,.74.856,2.9,2.9,0,0,1,.266,1.276,2.845,2.845,0,0,1-.26,1.255,1.932,1.932,0,0,1-.736.835,2.033,2.033,0,0,1-1.091.3,1.9,1.9,0,0,1-.932-.224,1.46,1.46,0,0,1-.616-.644v2.514h-.973V77.357h.973v.761a1.517,1.517,0,0,1,.616-.648,1.841,1.841,0,0,1,.932-.228,1.992,1.992,0,0,1,1.081.305" transform="translate(1213.927 -75.284)"/>
      <path id="Path_32" data-name="Path 32" d="M-1193.031,80.885a1.9,1.9,0,0,0,.34-1.228,1.878,1.878,0,0,0-.346-1.22,1.192,1.192,0,0,0-.98-.425,1.188,1.188,0,0,0-.98.425,1.9,1.9,0,0,0-.345,1.22,1.9,1.9,0,0,0,.341,1.228,1.194,1.194,0,0,0,.984.418,1.2,1.2,0,0,0,.986-.418m-2.2.884a2.008,2.008,0,0,1-.81-.841,2.718,2.718,0,0,1-.283-1.27,2.752,2.752,0,0,1,.283-1.28,1.983,1.983,0,0,1,.81-.841,2.439,2.439,0,0,1,1.215-.3,2.434,2.434,0,0,1,1.217.3,2,2,0,0,1,.808.841,2.728,2.728,0,0,1,.283,1.28,2.7,2.7,0,0,1-.283,1.27,1.972,1.972,0,0,1-.808.841,2.443,2.443,0,0,1-1.217.3,2.41,2.41,0,0,1-1.215-.3" transform="translate(1215.589 -75.284)"/>
      <path id="Path_33" data-name="Path 33" d="M-1189.524,78.049l-.587.057a1.445,1.445,0,0,0-1,.42,1.321,1.321,0,0,0-.3.895V82h-.971V77.356h.944v.808a1.649,1.649,0,0,1,1.528-.9l.316-.019Z" transform="translate(1217.337 -75.283)"/>
      <path id="Path_34" data-name="Path 34" d="M-1187.376,81a1.281,1.281,0,0,0,.335-.918V79.83h-.173a7.6,7.6,0,0,0-1.155.067,1.129,1.129,0,0,0-.577.224.582.582,0,0,0-.173.452.717.717,0,0,0,.244.555.9.9,0,0,0,.629.224,1.143,1.143,0,0,0,.87-.358m.824-3.286a1.96,1.96,0,0,1,.458,1.417V82h-.934v-.772a1.342,1.342,0,0,1-.542.622,1.626,1.626,0,0,1-.843.214,1.909,1.909,0,0,1-.844-.186,1.415,1.415,0,0,1-.6-.52,1.337,1.337,0,0,1-.215-.741,1.132,1.132,0,0,1,.264-.794,1.585,1.585,0,0,1,.876-.414,8.866,8.866,0,0,1,1.68-.124h.219v-.274a1.1,1.1,0,0,0-.225-.772.974.974,0,0,0-.736-.237,3.043,3.043,0,0,0-1.594.487l-.289-.677a3.168,3.168,0,0,1,.909-.414,3.6,3.6,0,0,1,1.023-.157,1.892,1.892,0,0,1,1.394.468" transform="translate(1218.359 -75.284)"/>
      <path id="Path_35" data-name="Path 35" d="M-1183.556,81.679l-.051.734a3.318,3.318,0,0,1-.5.039,1.854,1.854,0,0,1-1.359-.443,1.727,1.727,0,0,1-.448-1.28V78.483h-.912v-.744h.912v-1.4h.973v1.4h1.289v.744h-1.289v2.207q0,1.017.951,1.018a2.911,2.911,0,0,0,.432-.029" transform="translate(1219.8 -75.669)"/>
      <path id="Path_36" data-name="Path 36" d="M-1184.028,77.943h.973v4.642h-.973Zm-.065-2.073h1.116v1h-1.116Z" transform="translate(1221.01 -75.87)"/>
      <path id="Path_37" data-name="Path 37" d="M-1179.329,80.885a1.9,1.9,0,0,0,.341-1.228,1.878,1.878,0,0,0-.346-1.22,1.2,1.2,0,0,0-.98-.425,1.189,1.189,0,0,0-.98.425,1.9,1.9,0,0,0-.345,1.22,1.906,1.906,0,0,0,.341,1.228,1.2,1.2,0,0,0,.984.418,1.2,1.2,0,0,0,.986-.418m-2.2.884a2.008,2.008,0,0,1-.81-.841,2.711,2.711,0,0,1-.283-1.27,2.749,2.749,0,0,1,.283-1.28,1.983,1.983,0,0,1,.81-.841,2.44,2.44,0,0,1,1.215-.3,2.435,2.435,0,0,1,1.217.3,2.011,2.011,0,0,1,.808.841,2.732,2.732,0,0,1,.283,1.28,2.707,2.707,0,0,1-.283,1.27,1.97,1.97,0,0,1-.808.841,2.444,2.444,0,0,1-1.217.3,2.411,2.411,0,0,1-1.215-.3" transform="translate(1221.662 -75.284)"/>
      <path id="Path_38" data-name="Path 38" d="M-1174.467,79.114V82h-.973V79.163a1.32,1.32,0,0,0-.235-.866.92.92,0,0,0-.736-.274,1.266,1.266,0,0,0-.943.363,1.325,1.325,0,0,0-.355.969V82h-.973V77.356h.951V78.1a1.567,1.567,0,0,1,.645-.638,1.951,1.951,0,0,1,.932-.218q1.689,0,1.687,1.871" transform="translate(1223.408 -75.283)"/>
    </g>
    <path id="Path_22" data-name="Path 22" d="M-1175.153,41.774c-34.312,0-57.73,10.672-57.73,23.834,0,3.934,2.309,7.645,6.393,10.915a10.572,10.572,0,0,1-1.162-4.739c0-12.459,21.3-22.558,52.5-22.558s52.5,10.1,52.5,22.558a10.562,10.562,0,0,1-1.162,4.739c4.084-3.27,6.392-6.981,6.392-10.915.006-13.162-23.411-23.834-57.725-23.834" transform="translate(0 0)"/>
    <path id="Path_23" data-name="Path 23" d="M-1205.044,66.7v10.54a15.1,15.1,0,0,1-3.664,1.191,21.718,21.718,0,0,1-4.338.43,12.468,12.468,0,0,1-5.925-1.329,9.156,9.156,0,0,1-3.849-3.819,12.268,12.268,0,0,1-1.344-5.913,12.237,12.237,0,0,1,1.328-5.849,9.214,9.214,0,0,1,3.8-3.835,11.9,11.9,0,0,1,5.773-1.345,14.044,14.044,0,0,1,4.321.642,9.437,9.437,0,0,1,3.314,1.774l-1.5,3.39a11.083,11.083,0,0,0-2.915-1.541,9.678,9.678,0,0,0-3.07-.473q-6.23,0-6.228,7.24,0,3.728,1.619,5.561a6.176,6.176,0,0,0,4.885,1.833,13.771,13.771,0,0,0,3.511-.457V70h-4.215V66.7h8.493Z" transform="translate(3.865 6.645)"/>
    <path id="Path_24" data-name="Path 24" d="M-1200.716,72.769a3.319,3.319,0,0,0,.824-2.337v-.521h-.52a10.416,10.416,0,0,0-3.468.4,1.436,1.436,0,0,0-.992,1.435,1.84,1.84,0,0,0,.563,1.377,1.955,1.955,0,0,0,1.419.55,2.807,2.807,0,0,0,2.173-.9m3.619-9.944a6.667,6.667,0,0,1,1.605,4.918V76.6h-4.367v-2.23a3.645,3.645,0,0,1-1.529,1.817,4.684,4.684,0,0,1-2.5.658,6.158,6.158,0,0,1-2.767-.612,4.836,4.836,0,0,1-1.954-1.71,4.381,4.381,0,0,1-.717-2.443,3.787,3.787,0,0,1,.84-2.6,5.012,5.012,0,0,1,2.7-1.375,23.808,23.808,0,0,1,5.1-.429h.8v-.551a2.545,2.545,0,0,0-.58-1.895,2.91,2.91,0,0,0-2.016-.551,8.666,8.666,0,0,0-2.443.4,11.913,11.913,0,0,0-2.565,1.1l-1.222-3.086a12.505,12.505,0,0,1,3.161-1.329,12.881,12.881,0,0,1,3.5-.535q3.355.009,4.96,1.595" transform="translate(10.439 8.623)"/>
    <rect id="Rectangle_237" data-name="Rectangle 237" width="4.61" height="21.54" transform="translate(-1182.367 63.688)"/>
    <path id="Path_25" data-name="Path 25" d="M-1192.711,63.7h4.612v15h-4.612Zm-.154-7.212h4.949V60.8h-4.949Z" transform="translate(17.736 6.523)"/>
    <rect id="Rectangle_238" data-name="Rectangle 238" width="4.613" height="21.54" transform="translate(-1167.587 63.688)"/>
    <path id="Path_26" data-name="Path 26" d="M-1177.605,65.252a4.186,4.186,0,0,0-.961,2.429h5.894a3.982,3.982,0,0,0-.808-2.445,2.541,2.541,0,0,0-2.029-.824,2.723,2.723,0,0,0-2.1.84m8.814,4.719h-9.775a3.876,3.876,0,0,0,1.175,2.612,4.121,4.121,0,0,0,2.733.81,7.255,7.255,0,0,0,2.305-.382,7.443,7.443,0,0,0,2.092-1.084l1.221,3.086a8.328,8.328,0,0,1-2.671,1.344,10.637,10.637,0,0,1-3.159.489,8.27,8.27,0,0,1-5.97-2.093,7.527,7.527,0,0,1-2.182-5.7,8.485,8.485,0,0,1,.945-4.064,6.948,6.948,0,0,1,2.628-2.764,7.375,7.375,0,0,1,3.817-.993,6.4,6.4,0,0,1,4.992,2.046,7.988,7.988,0,0,1,1.849,5.561Z" transform="translate(22.097 8.624)"/>
    <path id="Path_27" data-name="Path 27" d="M-1160.976,69.024a5.076,5.076,0,0,0-.87-3.239,3.027,3.027,0,0,0-2.49-1.069q-3.362,0-3.361,4.308t3.361,4.308q3.36,0,3.36-4.308m-7.542,6.858a6.715,6.715,0,0,1-2.778-2.719,8.366,8.366,0,0,1-.977-4.139,8.366,8.366,0,0,1,.977-4.139,6.652,6.652,0,0,1,2.778-2.7,8.856,8.856,0,0,1,4.184-.947,8.893,8.893,0,0,1,4.185.947,6.634,6.634,0,0,1,2.777,2.7,8.36,8.36,0,0,1,.978,4.139,8.352,8.352,0,0,1-.978,4.139,6.722,6.722,0,0,1-2.777,2.719,8.744,8.744,0,0,1-4.185.963,8.7,8.7,0,0,1-4.184-.963" transform="translate(26.862 8.625)"/>
    <path id="Path_39" data-name="Path 39" d="M-1152.114,47.417a2.813,2.813,0,0,1-2.81,2.81,2.812,2.812,0,0,1-2.808-2.81,2.812,2.812,0,0,1,2.808-2.81,2.813,2.813,0,0,1,2.81,2.81m-2.81-3.435a3.44,3.44,0,0,0-3.433,3.435,3.44,3.44,0,0,0,3.433,3.435,3.44,3.44,0,0,0,3.433-3.435,3.438,3.438,0,0,0-3.433-3.435" transform="translate(33.029 0.979)"/>
    <path id="Path_40" data-name="Path 40" d="M-1155,46.574a.42.42,0,0,0,.143-.352.414.414,0,0,0-.143-.354.778.778,0,0,0-.465-.108h-.711v.928h.711a.753.753,0,0,0,.465-.114m1.025,1.989h-.814l-.584-1.077a.431.431,0,0,0-.172-.179.513.513,0,0,0-.254-.055h-.37v1.312h-.739V45.187h1.553a1.342,1.342,0,0,1,.9.261.939.939,0,0,1,.3.753.978.978,0,0,1-.212.642,1.033,1.033,0,0,1-.6.341.739.739,0,0,1,.445.377Z" transform="translate(33.673 1.513)"/>
  </g>
</svg>
