<?xml version="1.0" encoding="UTF-8" standalone="no"?>
<!-- Created with Inkscape (http://www.inkscape.org/) -->

<svg
   width="244.612mm"
   height="225.92461mm"
   viewBox="0 0 244.612 225.92461"
   version="1.1"
   id="svg5"
   xml:space="preserve"
   xmlns="http://www.w3.org/2000/svg"
   xmlns:svg="http://www.w3.org/2000/svg"><defs
     id="defs2" /><g
     id="layer2"
     transform="translate(-595.82381,-207.83796)"><g
       id="layer1"><g
         id="g1067"><rect
           style="fill:#000000;fill-rule:evenodd;stroke:#000000;stroke-width:0.231525;stroke-linecap:round;stroke-linejoin:bevel;paint-order:stroke fill markers"
           id="rect870"
           width="244.38048"
           height="225.69308"
           x="595.93958"
           y="207.95372"
           ry="44.949638" /><g
           id="g5935"
           style="fill:#ffffff;stroke:#ffffff;stroke-opacity:1"
           transform="matrix(1.0307419,0,0,1.028915,602.28269,231.93797)"><path
             style="fill:#ffffff;stroke:#ffffff;stroke-width:0.264583;stroke-opacity:1"
             d="m 63.059834,166.44127 c -16.08132,-1.38524 -27.49649,-10.73123 -31.7024,-25.95583 l -0.70906,-2.56666 -0.0718,-47.095826 c -0.0799,-52.462075 -0.17229,-49.495606 1.70325,-54.716198 4.68631,-13.044382 15.71618,-21.460622 30.04914,-22.928712 3.0979,-0.317311 35.823761,-0.05915 35.782832,-0.01887 0,0 -7.813556,11.708061 -7.85332,11.694583 l -13.218632,0.212689 c -20.57704,0.01058 -23.91479,0.930449 -29.70413,8.186316 -5.48393,6.873113 -5.21679,3.863353 -5.12159,57.702512 l 0.0784,44.317706 0.58818,2.11666 c 2.29163,8.24683 8.47773,14.36569 16.5913,16.41094 l 2.62987,0.66294 48.566996,-0.0703 48.567,-0.0703 2.24896,-0.75845 c 7.95663,-2.68334 13.32382,-8.3035 15.69948,-16.43947 0.52038,-1.78219 0.54458,-2.64249 0.64103,-22.79523 l 0.23928,-19.191203 c 3.8173,-3.356818 11.44962,-10.064954 11.42268,-10.102504 0,0 0.0628,50.005437 -0.24112,52.038257 -2.19118,14.65594 -13.15848,25.94239 -28.02594,28.84148 -2.58482,0.50403 -92.802666,0.98696 -98.160406,0.52544 z"
             id="path2404" /><g
             id="g2623"
             transform="matrix(0.47172868,0.89906477,-0.90513859,0.46856319,89.637022,-65.523899)"
             style="fill:#ffffff;stroke:#ffffff;stroke-opacity:1"><path
               style="fill:#ffffff;stroke:#ffffff;stroke-width:0.280744;stroke-opacity:1"
               d="m 137.88959,98.831349 c -41.329841,-4.71536 -59.424428,-53.934844 -30.6699,-83.425866 29.61821,-30.37682 80.8274,-12.7632767 85.39252,29.370991 3.32156,30.656728 -23.92299,57.568826 -54.72262,54.054875 z m 10.57364,-2.3196 c 32.32152,-3.44409 51.461,-38.217453 37.24518,-67.668511 -16.34121,-33.8542287 -65.16881,-35.3532217 -83.90187,-2.575764 -19.1372,33.484573 8.01382,74.361946 46.65669,70.244275 z m -10.57364,-1.84345 C 106.72448,90.358973 88.900165,59.086846 101.61038,31.017728 c 16.79003,-37.0789617 70.3561,-34.8058537 84.48912,3.585347 11.26016,30.587321 -15.97687,64.522214 -48.20991,60.065224 z m 13.80985,-2.63759 c 4.64979,-0.94642 10.17871,-3.258266 14.92447,-6.240466 l 1.80679,-1.13536 -1.10188,-0.28786 c -2.58609,-0.67559 -12.84024,-3.267341 -18.987,-4.798987 -11.01296,-2.744209 -12.23212,-3.12953 -13.90148,-4.39362 -0.81681,-0.618514 -2.18297,-1.470504 -3.03591,-1.893313 -2.70922,-1.342976 -4.86395,-2.940588 -7.38844,-5.478101 l -2.45407,-2.46673 0.57989,1.320613 c 0.31894,0.726341 1.68913,3.96218 3.04488,7.190756 6.07111,14.457702 7.45003,17.445808 8.19006,17.747688 2.75022,1.12193 13.67439,1.3815 18.32269,0.43538 z M 127.6312,85.281763 c -7.44061,-16.589669 -10.10417,-23.303706 -10.35802,-26.10947 -0.13214,-1.460547 -0.36403,-3.410272 -0.51531,-4.332722 -0.63606,-3.878469 -0.59619,-7.291276 0.12431,-10.64154 0.0969,-0.450564 -0.43754,0.312889 -1.18764,1.696565 -0.75009,1.383676 -2.38962,4.33971 -3.64339,6.568966 -1.25378,2.229255 -3.65281,6.562338 -5.33117,9.629075 l -3.05158,5.575883 1.39112,2.663252 c 4.50687,8.628272 13.22418,16.163531 22.67938,19.604101 2.64048,0.960816 2.65298,1.501126 -0.1077,-4.65411 z m 46.35309,-5.632995 c 4.94768,-5.00776 7.87635,-9.633254 9.95608,-15.724458 1.03155,-3.021235 2.01744,-7.227743 1.75496,-7.48795 -0.13042,-0.129299 -6.49838,3.58599 -19.46839,11.358547 -2.17112,1.301091 -4.976,2.980057 -6.23306,3.731036 -1.25707,0.75098 -2.77967,1.435313 -3.38357,1.520737 -0.60389,0.08542 -2.39608,0.589206 -3.98263,1.119512 -3.02531,1.011209 -6.46153,1.764024 -8.20724,1.798057 -0.58044,0.01132 4.21458,1.35783 10.9509,3.075184 6.5909,1.68028 12.61788,3.23215 13.39328,3.4486 0.7754,0.21645 1.5367,0.40537 1.69178,0.41982 0.15508,0.0144 1.74263,-1.45214 3.52789,-3.259085 z M 149.36581,72.855496 C 161.1194,69.878496 169.12728,57.8869 167.22442,46.112689 164.0427,26.4253 140.60149,18.734517 125.97408,32.578942 108.12323,49.47426 125.25002,78.963644 149.36581,72.855496 Z m -10.20738,-2.065104 c -13.6377,-2.6825 -21.54447,-16.631266 -16.50282,-29.113536 6.94251,-17.188453 31.70161,-18.213176 39.92484,-1.652399 7.89062,15.890931 -6.037,34.185523 -23.42202,30.765935 z m 8.47016,-2.54219 c 14.63322,-3.727908 19.75196,-21.5747 9.18462,-32.022712 -12.32987,-12.190634 -33.04028,-3.868445 -33.10555,13.303002 -0.0467,12.288251 12.03957,21.746564 23.92093,18.71971 z m 30.04618,-9.859056 c 10.31488,-6.125728 10.70087,-7.235 7.11988,-20.461168 -1.22448,-4.522559 -1.0035,-4.567033 -3.88488,0.781869 -3.28413,6.096537 -5.45726,10.051876 -7.78692,14.17301 -1.04291,1.844901 -2.36553,4.28393 -2.93915,5.420065 -0.64036,1.2683 -1.76989,2.832907 -2.92611,4.053192 -1.03574,1.09312 -2.29978,2.515928 -2.80898,3.161791 l -0.92581,1.174302 3.04385,-1.756955 c 1.67412,-0.966323 6.67278,-3.912071 11.10812,-6.546106 z m -74.46672,5.50159 c 0,-0.134558 1.05648,-2.100328 2.34773,-4.368376 1.29125,-2.268052 3.90937,-7.016869 5.81803,-10.552929 5.42243,-10.045813 5.65284,-10.417829 8.11046,-13.095104 3.07158,-3.34612 4.51821,-3.943012 -14.77839,6.097716 l -4.817361,2.50665 -0.170548,1.406776 c -0.591338,4.877703 0.506929,13.371633 2.345389,18.139106 0.29402,0.76247 1.14469,0.66301 1.14469,-0.133839 z m 68.66578,-13.383887 c 1.18786,-2.229256 2.76573,-5.122396 3.50637,-6.429201 2.24246,-3.956594 5.27743,-9.54599 6.12016,-11.271258 l 0.79495,-1.627459 -1.12607,-2.122033 c -4.99703,-9.416671 -14.03559,-16.966364 -24.33586,-20.3271497 -2.32551,-0.758772 -2.31754,-0.738036 7.99681,20.8123167 3.27988,6.852842 3.67268,7.968407 4.08463,11.600513 0.17437,1.537418 0.4298,3.612932 0.56763,4.612253 0.3067,2.223768 0.31301,6.101303 0.0129,7.910399 -0.29488,1.777428 -0.14664,1.580585 2.37851,-3.158381 z M 110.21842,36.627231 c 5.21648,-2.714056 11.00712,-5.783838 12.86808,-6.82174 1.86096,-1.037902 3.94306,-2.035177 4.62691,-2.216167 0.68383,-0.180991 1.88923,-0.690203 2.67865,-1.131579 2.09114,-1.169183 5.04549,-2.220347 7.77949,-2.767955 l 2.3967,-0.480049 -1.40982,-0.201156 c -1.67072,-0.23838 -11.90691,-2.021888 -19.47697,-3.393575 -6.98803,-1.266231 -6.46988,-1.313396 -8.48556,0.772432 -4.52724,4.684796 -7.91765,10.77484 -9.99817,17.959242 -0.85937,2.967551 -0.9084,3.21519 -0.63657,3.21519 0.095,0 4.44077,-2.22059 9.65726,-4.934643 z m 50.59774,-10.229884 c -1.63036,-3.420754 -3.5702,-7.540334 -4.31076,-9.154622 -5.11735,-11.1548357 -4.07984,-9.7164027 -7.36589,-10.2122537 -10.86913,-1.6401 -22.7709,1.260017 -31.6218,7.7053097 -2.41619,1.759493 -2.41122,1.775734 0.70491,2.303801 1.43449,0.243093 4.95551,0.884702 7.8245,1.425798 6.16843,1.16338 14.05469,2.538494 18.69221,3.25933 3.02935,0.470869 3.47761,0.619993 5.03831,1.676129 0.94222,0.637604 2.73397,1.592443 3.98166,2.121871 2.87765,1.221056 5.53439,2.970855 7.99567,5.266172 1.06387,0.992126 1.95481,1.809297 1.97988,1.815942 0.0251,0.0067 -1.28834,-2.786723 -2.91869,-6.207477 z"
               id="path2402"
               transform="rotate(161.66198,143.0471,49.63898)" /><path
               style="fill:#ffffff;fill-rule:evenodd;stroke:#ffffff;stroke-width:0.883125;stroke-linecap:round;stroke-linejoin:bevel;stroke-opacity:1;paint-order:stroke fill markers"
               d="m 531.56034,365.46881 c -35.64627,-1.76961 -69.95054,-14.22422 -98.41729,-35.73174 -35.43623,-26.77319 -60.12917,-66.05264 -68.6584,-109.21606 -7.56214,-38.26934 -1.9904,-77.46873 16.04839,-112.90657 15.65709,-30.758903 38.08172,-54.92954 67.31545,-72.556717 4.97688,-3.000923 15.70093,-8.423947 21.40398,-10.82373 31.04587,-13.063776 65.65332,-17.4258764 98.84476,-12.458902 46.41829,6.946326 86.86523,30.363124 114.51228,66.297009 18.97243,24.65916 31.6176,55.27048 35.59734,86.1737 1.15285,8.95195 1.34382,12.22108 1.33728,22.89036 -0.007,10.95997 -0.33902,16.02233 -1.63919,24.97131 -5.29686,36.45748 -21.32478,70.03626 -46.40043,97.20973 -20.82903,22.57156 -48.09588,39.70967 -77.09049,48.45387 -20.65512,6.22922 -41.35888,8.76481 -62.85368,7.69774 z m 17.86821,-6.21251 c 23.44964,-1.09636 44.34547,-6.57851 65.56185,-17.20056 50.55928,-25.31264 87.27112,-75.23688 96.2282,-130.86027 1.56478,-9.71741 1.79116,-12.97041 1.78786,-25.69434 -0.003,-12.70237 -0.20952,-15.63331 -1.78711,-25.39917 -4.01304,-24.8419 -14.71327,-50.43227 -30.0596,-71.889618 -23.62942,-33.038849 -58.11781,-56.27667 -98.25243,-66.201175 -23.6365,-5.844846 -48.47008,-6.81785 -72.3441,-2.834514 -33.7053,5.623669 -64.38573,20.803904 -88.69894,43.88697 -25.25419,23.976426 -43.70922,58.110857 -50.52604,93.452957 -1.95859,10.15444 -2.70722,17.50691 -2.92091,28.68728 -0.18093,9.46614 0.10059,15.45704 1.11056,23.63356 3.1443,25.4556 12.36049,50.38176 26.59947,71.94114 14.23036,21.54632 32.84817,39.32119 55.58574,53.06899 4.93127,2.98161 16.24215,8.7121 21.9719,11.13179 19.2701,8.13774 41.80668,13.34571 61.7117,14.26091 7.16693,0.32953 7.32307,0.32971 14.03185,0.0161 z"
               id="path2502"
               transform="matrix(-0.25114697,0.08324384,-0.08324384,-0.25114697,294.44736,51.751321)" /><path
               style="fill:#ffffff;fill-rule:evenodd;stroke:#ffffff;stroke-width:1.24893;stroke-linecap:round;stroke-linejoin:bevel;stroke-opacity:1;paint-order:stroke fill markers"
               d="m 530.98265,277.80998 c -3.9079,-0.42279 -11.31676,-1.9391 -15.81414,-3.23655 -31.04757,-8.95691 -56.19867,-35.53237 -64.09974,-67.72983 -2.04901,-8.34988 -2.60846,-13.9468 -2.3533,-23.54318 0.23971,-9.01533 1.133,-14.69047 3.48351,-22.13114 9.26154,-29.31798 35.72885,-53.70228 66.80187,-61.544471 13.18466,-3.327536 28.17803,-3.633458 41.41077,-0.844936 27.74266,5.846187 51.49495,24.537487 63.47394,49.949307 5.76695,12.2338 8.83723,25.78087 8.83723,38.99266 0,41.27409 -30.42556,78.93446 -71.11372,88.02364 -7.63671,1.70594 -13.94596,2.36522 -21.92437,2.29098 -3.97683,-0.037 -7.89276,-0.13892 -8.70205,-0.22648 z m 19.67091,-8.98345 c 34.75597,-3.8185 63.53054,-30.48331 70.97019,-65.76666 1.34732,-6.38984 1.83099,-18.44361 1.017,-25.34534 -2.18529,-18.52881 -11.50818,-37.02308 -25.00737,-49.60832 -34.84388,-32.484799 -93.60703,-28.00142 -122.78731,9.36816 -12.2036,15.62847 -18.53633,36.14543 -16.99924,55.07459 2.72863,33.60279 24.78591,61.4922 57.16009,72.2737 11.69175,3.89368 24.03278,5.27983 35.64664,4.00387 z"
               id="path2506"
               transform="matrix(-0.25114697,0.08324384,-0.08324384,-0.25114697,294.44736,51.751321)" /><path
               style="fill:#ffffff;fill-rule:evenodd;stroke:#ffffff;stroke-width:1.76625;stroke-linecap:round;stroke-linejoin:bevel;stroke-opacity:1;paint-order:stroke fill markers"
               d="m 614.32387,254.00657 c 0,-1.03551 15.02736,-14.6496 18.34982,-18.41422 5.73761,-6.50118 8.17739,-10.03748 12.4085,-17.98525 1.74086,-3.27005 8.71934,-15.97866 15.50772,-28.24136 6.78839,-12.26269 16.48708,-29.92097 21.55266,-39.24062 9.15341,-16.84045 9.81661,-25.86314 11.74018,-25.86314 2.24377,0 1.37321,8.17543 6.50013,28.01419 4.27458,16.54062 5.5386,24.1879 5.21889,31.57405 -0.23862,5.51279 -0.46287,6.48081 -2.41035,10.40471 -4.13595,8.33337 -10.17183,13.06983 -37.28991,29.26206 -36.66208,21.89095 -51.57764,34.03152 -51.57764,30.48958 z"
               id="path2508"
               transform="matrix(-0.25114697,0.08324384,-0.08324384,-0.25114697,294.44736,51.751321)" /><path
               style="fill:#ffffff;fill-rule:evenodd;stroke:#ffffff;stroke-width:1.76625;stroke-linecap:round;stroke-linejoin:bevel;stroke-opacity:1;paint-order:stroke fill markers"
               d="m 606.74329,111.9482 c -6.39656,-5.53907 -13.92115,-10.24877 -24.67402,-15.44366 -5.39559,-2.606696 -12.35188,-6.301028 -15.45843,-8.209621 -3.10655,-1.908592 -7.1198,-3.886498 -8.91833,-4.395348 -1.79852,-0.508849 -11.43031,-2.263648 -21.40397,-3.899553 -17.50113,-2.87058 -32.27656,-5.483658 -74.02209,-13.091022 -24.71857,-4.504511 -32.25461,-2.224241 -32.25461,-4.302917 0,-1.487109 10.65194,-3.866457 14.86388,-6.902282 23.14514,-16.682256 51.4439,-27.051566 81.55142,-29.882302 13.6248,-1.281015 40.98142,0.362553 45.57529,2.738136 2.47705,1.280933 4.92312,5.661093 13.0492,23.367192 8.12053,17.694006 21.65228,35.250743 28.91207,50.423117 2.48713,5.1979 -2.3846,-2.1958 3.9275,8.76968 4.82745,8.3863 0.46821,17.73018 -0.59456,17.70577 -1.4757,-0.0339 -7.37491,-14.12485 -10.55335,-16.87719 z"
               id="path2512"
               transform="matrix(-0.25114697,0.08324384,-0.08324384,-0.25114697,294.44736,51.751321)" /><path
               style="fill:#ffffff;fill-rule:evenodd;stroke:#ffffff;stroke-width:1.76625;stroke-linecap:round;stroke-linejoin:bevel;stroke-opacity:1;paint-order:stroke fill markers"
               d="m 378.93971,249.97305 c -4.89305,-1.27554 0.51,-31.70921 -1.13073,-45.44616 -1.05772,-8.85569 -1.31629,-27.34574 -0.46063,-32.93966 l 0.4913,-3.21192 18.13393,-9.45822 c 51.64726,-26.93796 68.22518,-39.29375 68.22518,-36.85784 0,0.42352 -11.86288,12.11395 -14.19008,14.71523 -7.69684,8.60329 -9.71467,11.86842 -26.98961,43.67294 -6.12776,11.28168 -15.81653,28.90388 -21.5306,39.16045 -5.71407,10.25657 -10.76761,19.55392 -11.23009,20.66078 -0.63132,1.51095 -8.11737,35.02507 -3.78475,12.71447 0.15282,-0.78691 -4.68982,-2.26867 -7.53392,-3.01007 z"
               id="path2514"
               transform="matrix(-0.25114697,0.08324384,-0.08324384,-0.25114697,294.44736,51.751321)" /><path
               style="fill:#ffffff;fill-rule:evenodd;stroke:#ffffff;stroke-width:1.76625;stroke-linecap:round;stroke-linejoin:bevel;stroke-opacity:1;paint-order:stroke fill markers"
               d="m 526.61385,349.22823 c -9.28313,-0.55998 -18.57447,-1.9201 -21.51778,-3.1499 -2.42459,-1.01306 -3.80581,-3.27683 -9.34353,-15.31369 -7.36635,-16.01161 -32.22038,-68.90162 -33.63473,-69.57274 -2.6755,-1.26955 -8.07771,-23.17573 -6.68301,-23.17573 1.25216,0 14.77133,20.32728 18.75761,23.91967 6.01832,5.42363 13.19402,10.48974 20.18001,14.24723 2.61604,1.40707 7.98174,4.65164 11.92377,7.21014 10.46529,6.79231 5.92023,5.44761 90.93423,26.90373 31.57831,7.96984 39.63561,7.79943 40.67957,7.98084 4.12823,0.71736 -5.86166,4.1176 -10.18575,6.7363 -17.79813,10.77865 -39.03912,19.47083 -54.87058,22.45398 -11.69392,2.2035 -28.36829,2.83823 -46.23981,1.76017 z"
               id="path2516"
               transform="matrix(-0.25114697,0.08324384,-0.08324384,-0.25114697,294.44736,51.751321)" /><path
               style="fill:#ffffff;fill-rule:evenodd;stroke:#ffffff;stroke-width:0.156116;stroke-linecap:round;stroke-linejoin:bevel;stroke-opacity:1;paint-order:stroke fill markers"
               d="m 464.26779,257.98957 c -0.0427,-0.0939 -0.60682,-1.41233 -1.25367,-2.92976 -0.64685,-1.51743 -1.59296,-3.70763 -2.10247,-4.86711 -0.50951,-1.15948 -0.92638,-2.17044 -0.92638,-2.24659 0,-0.11615 0.0233,-0.13833 0.14451,-0.13777 0.12137,5.6e-4 0.80759,0.66923 4.28297,4.17342 3.33902,3.3667 4.13845,4.19899 4.13845,4.30857 0,0.16486 -0.0831,0.17251 -0.54421,0.0501 -0.39451,-0.1047 -1.39471,-0.11602 -1.8469,-0.0209 -0.73093,0.15376 -1.19261,0.55453 -1.39763,1.21325 -0.055,0.17688 -0.10009,0.39044 -0.10009,0.47458 0,0.13511 -0.0185,0.15297 -0.15851,0.15297 -0.12788,0 -0.17349,-0.033 -0.23607,-0.17079 z"
               id="path2518"
               transform="matrix(-0.25114697,0.08324384,-0.08324384,-0.25114697,294.44736,51.751321)" /><rect
               style="opacity:0;fill:#ffffff;fill-rule:evenodd;stroke:#ffffff;stroke-width:0.328643;stroke-linecap:round;stroke-linejoin:bevel;stroke-opacity:1;paint-order:stroke fill markers"
               id="rect2572"
               width="10.102575"
               height="9.5495815"
               x="137.9957"
               y="44.864655"
               ry="1.9073756" /></g></g></g></g></g></svg>
